<?xml version="1.0" encoding="utf-8"?>
<!-- Generator: Adobe Illustrator 26.0.0, SVG Export Plug-In . SVG Version: 6.00 Build 0)  -->
<svg version="1.1" id="图层_1" xmlns="http://www.w3.org/2000/svg" xmlns:xlink="http://www.w3.org/1999/xlink" x="0px" y="0px"
	 viewBox="0 0 512 512" style="enable-background:new 0 0 512 512;" xml:space="preserve">
<g>
	<g>
		<path d="M253.31,87.21c-8.99,22.57-21.2,43.63-32.65,65c-11.1,20.71-23.17,42.84-27.86,66.08c-2.3,11.37-2.25,22.94,1.99,33.86
			c4.24,10.91,10.84,20.69,15.04,31.64c8.82,22.99,9.07,47.04-1.4,69.53c-11.55,24.8-31.73,43.8-51.72,61.85
			c-4.79,4.32,2.3,11.38,7.07,7.07c17.67-15.96,35.33-32.61,47.63-53.23c12.34-20.68,17.95-44.06,13.69-67.95
			c-2.14-11.98-6.52-23.49-12.01-34.32c-5.56-10.95-11.88-21.14-11.89-33.84c-0.01-12.42,4.33-24.5,8.9-35.9
			c4.6-11.45,10.11-22.52,15.85-33.44c12.8-24.36,26.8-48.08,37.01-73.7C265.33,83.89,255.66,81.29,253.31,87.21L253.31,87.21z"/>
	</g>
</g>
<g>
	<g>
		<path d="M225.3,166.44c21.44,27.34,37.44,58.66,47.28,91.96c1.82,6.16,11.47,3.54,9.64-2.66c-10.36-35.06-27.31-67.62-49.85-96.38
			C228.4,154.31,221.37,161.43,225.3,166.44L225.3,166.44z"/>
	</g>
</g>
</svg>
